HIERARCHY
ROOT Hips
{
  OFFSET 0.000000 0.000000 0.000000
  CHANNELS 6 Xposition Yposition Zposition Xrotation Yrotation Zrotation
  JOINT Spine
  {
    OFFSET -1.410761 -23.180087 -4.259396
    CHANNELS 3 Xrotation Yrotation Zrotation
    JOINT Chest
    {
      OFFSET -1.410761 -23.180087 -4.259396
      CHANNELS 3 Xrotation Yrotation Zrotation
      JOINT Neck
      {
        OFFSET -4.879265 -18.500502 -5.542388
        CHANNELS 3 Xrotation Yrotation Zrotation
        JOINT Head
        {
          OFFSET 1.248162 0.614890 -12.021115
          CHANNELS 3 Xrotation Yrotation Zrotation
          End Site
          {
            OFFSET 0.0 5.0 2.0
          }
        }
      }
      JOINT LeftShoulder
      {
        OFFSET 17.049804 -1.709025 1.879620
        CHANNELS 3 Xrotation Yrotation Zrotation
        JOINT LeftArm
        {
          OFFSET 4.925931 20.871121 5.562160
          CHANNELS 3 Xrotation Yrotation Zrotation
          JOINT LeftForeArm
          {
            OFFSET 2.698436 18.471542 -0.671539
            CHANNELS 3 Xrotation Yrotation Zrotation
            JOINT LeftHand
            {
              OFFSET -5.000000 0.000000 0.000000
              CHANNELS 3 Xrotation Yrotation Zrotation
              End Site
              {
                OFFSET -3.0 0.0 2.0
              }
            }
          }
        }
      }
      JOINT RightShoulder
      {
        OFFSET -17.049804 1.709025 -1.879620
        CHANNELS 3 Xrotation Yrotation Zrotation
        JOINT RightArm
        {
          OFFSET -5.735140 10.591835 -10.198685
          CHANNELS 3 Xrotation Yrotation Zrotation
          JOINT RightForeArm
          {
            OFFSET 9.372658 -7.249033 -15.784034
            CHANNELS 3 Xrotation Yrotation Zrotation
            JOINT RightHand
            {
              OFFSET 5.000000 0.000000 0.000000
              CHANNELS 3 Xrotation Yrotation Zrotation
              End Site
              {
                OFFSET 3.0 0.0 2.0
              }
            }
          }
        }
      }
    }
  }
  JOINT LeftUpLeg
  {
    OFFSET 11.572905 -0.872168 2.369799
    CHANNELS 3 Xrotation Yrotation Zrotation
    JOINT LeftLeg
    {
      OFFSET 6.005910 38.750590 4.262696
      CHANNELS 3 Xrotation Yrotation Zrotation
      JOINT LeftFoot
      {
        OFFSET 5.903627 35.290802 11.185755
        CHANNELS 3 Xrotation Yrotation Zrotation
        JOINT LeftToeBase
        {
          OFFSET 10.663164 6.871796 -11.673905
          CHANNELS 3 Xrotation Yrotation Zrotation
          End Site
          {
            OFFSET 0.0 -1.0 3.0
          }
        }
      }
    }
  }
  JOINT RightUpLeg
  {
    OFFSET -11.572905 0.872168 -2.369799
    CHANNELS 3 Xrotation Yrotation Zrotation
    JOINT RightLeg
    {
      OFFSET 2.935097 37.878079 2.000000
      CHANNELS 3 Xrotation Yrotation Zrotation
      JOINT RightFoot
      {
        OFFSET 2.345319 33.606130 12.423047
        CHANNELS 3 Xrotation Yrotation Zrotation
        JOINT RightToeBase
        {
          OFFSET -1.234143 11.072594 -12.620350
          CHANNELS 3 Xrotation Yrotation Zrotation
          End Site
          {
            OFFSET 0.0 -1.0 3.0
          }
        }
      }
    }
  }
}
MOTION
Frames: 15
Frame Time: 0.066667
0.000000 0.000000 0.000000 0.000000 0.000000 0.000000 0.000000 0.000000 0.000000 0.000000 0.000000 0.000000 0.000000 0.000000 0.000000 0.000000 0.000000 0.000000 0.000000 0.000000 0.000000 0.000000 0.000000 0.000000 14.198350 -15.804687 -83.800462 0.000000 0.000000 0.000000 0.000000 0.000000 0.000000 0.000000 0.000000 0.000000 -5.672247 28.914875 -21.753219 0.000000 0.000000 0.000000 0.000000 0.000000 0.000000 0.000000 0.000000 0.000000 81.267346 -56.895618 -49.868517 0.000000 0.000000 0.000000 -0.000915 0.000071 -0.000000 0.000000 0.000000 0.000000 97.167964 6.310593 7.151870 0.000000 0.000000 0.000000
0.000000 0.000000 0.000000 0.026837 0.207869 -0.054998 0.067209 0.174868 -0.971177 -0.083970 0.009321 0.770189 1.301447 0.000865 0.135269 0.000000 0.000000 0.000000 -5.331972 1.269992 -0.121765 -5.858291 0.605416 -2.856489 17.962967 -18.039030 -89.753868 0.000000 0.000000 0.000000 -7.258166 -4.858176 -0.599354 3.758994 -1.613216 2.900823 -3.682422 27.139371 -15.172586 0.000000 0.000000 0.000000 1.226225 -0.329911 1.151127 0.897827 -0.382818 0.712056 78.173424 -56.597566 -44.608890 0.000000 0.000000 0.000000 -0.951350 0.029367 0.996863 -3.111770 -0.322829 1.585220 96.918533 6.339425 18.835210 0.000000 0.000000 0.000000
0.000000 0.000000 0.000000 0.150233 1.666124 -0.127346 0.903536 0.358907 -2.158985 0.178007 1.702958 -0.073539 1.706013 4.552959 0.476378 0.000000 0.000000 0.000000 -6.263246 2.409604 -4.665107 -4.971531 -0.290762 -12.756535 19.498673 -16.545620 -99.521892 0.000000 0.000000 0.000000 4.437240 -4.866874 -7.858933 9.560118 -10.696307 9.865261 -0.637060 19.612461 -3.684564 0.000000 0.000000 0.000000 1.560702 -0.415423 1.392167 0.911484 -0.241307 0.271217 78.180601 -56.562114 -42.254920 0.000000 0.000000 0.000000 0.259841 -0.161833 2.567253 -1.968147 -0.076574 0.608238 95.540245 6.513684 19.879674 0.000000 0.000000 0.000000
0.000000 0.000000 0.000000 0.417746 5.170788 -0.150208 3.383070 0.252241 -2.142980 0.351587 3.403020 -0.115004 4.882187 12.376243 1.657269 0.000000 0.000000 0.000000 -11.249229 4.330534 -11.170219 -19.131748 -1.278528 -19.928918 31.780982 -24.902725 -104.403701 0.000000 0.000000 0.000000 20.366378 4.257474 -8.044636 22.885321 -8.877507 15.248338 1.589601 26.682006 6.695853 0.000000 0.000000 0.000000 -0.121207 -0.095661 1.049321 1.322341 0.908966 -3.443256 85.390295 -57.478125 -35.319117 0.000000 0.000000 0.000000 3.242419 -0.451169 2.446299 1.819712 -0.771751 1.658427 94.353586 6.733345 22.759327 0.000000 0.000000 0.000000
0.000000 0.000000 0.000000 0.694282 8.965515 -0.048409 2.291413 0.199400 -1.660334 0.808443 7.997680 0.018755 6.250573 14.094049 2.126078 0.000000 0.000000 0.000000 -12.645408 5.305208 -16.931577 -23.484294 -1.943488 -22.095990 39.930158 -29.425249 -108.280840 0.000000 0.000000 0.000000 23.048038 6.027054 -7.428283 24.214911 3.440836 12.273742 0.096735 37.145773 0.287894 0.000000 0.000000 0.000000 -2.633998 0.400297 0.080963 2.116075 2.173204 -7.557819 91.013381 -58.561685 -29.107038 0.000000 0.000000 0.000000 1.693738 -0.306023 2.574164 1.652543 -1.133161 2.629155 95.295056 6.573513 21.648732 0.000000 0.000000 0.000000
0.000000 0.000000 0.000000 0.908652 12.041500 0.220774 2.343175 -0.069646 -0.358610 0.904018 9.234080 1.101872 6.747319 19.488322 2.825550 0.000000 0.000000 0.000000 -16.171627 5.755577 -18.806415 -27.110221 -1.402614 -19.494600 42.503217 -33.248129 -104.972484 0.000000 0.000000 0.000000 22.871843 7.768429 -4.495553 30.619752 5.225639 15.226568 4.080297 38.678099 11.591312 0.000000 0.000000 0.000000 -7.171073 1.151326 -1.013657 5.173169 3.353612 -11.639761 96.290476 -59.661418 -26.146309 0.000000 0.000000 0.000000 0.984511 -0.276833 3.253733 2.485643 -1.611941 3.632400 95.260151 6.550977 20.019351 0.000000 0.000000 0.000000
0.000000 0.000000 0.000000 1.525297 19.875356 1.484628 -1.331247 -0.280768 2.103230 1.952028 17.468881 3.422986 10.086245 31.445722 5.409082 0.000000 0.000000 0.000000 -18.205017 5.562484 -15.424174 -26.646438 -0.413819 -15.941527 41.913690 -33.302728 -104.026596 0.000000 0.000000 0.000000 24.007122 10.655922 -0.454486 30.909911 13.887512 13.496925 5.701313 45.687998 13.482406 0.000000 0.000000 0.000000 -8.398825 1.356761 -1.833978 1.435457 4.395222 -14.227056 103.784209 -61.286901 -23.453482 0.000000 0.000000 0.000000 -0.273308 -0.266790 5.687483 0.569266 -1.902152 4.944087 94.083447 6.936792 28.664185 0.000000 0.000000 0.000000
0.000000 0.000000 0.000000 1.944654 23.929203 3.609212 -2.478931 -0.471905 3.845878 2.332971 19.362331 5.283744 14.958457 39.650220 8.810247 0.000000 0.000000 0.000000 -18.657328 5.302754 -11.961585 -27.443566 5.186412 3.677364 24.727755 -32.912483 -73.158155 0.000000 0.000000 0.000000 23.837465 12.895207 3.597305 34.157799 24.481055 13.424490 7.756289 53.323108 15.378125 0.000000 0.000000 0.000000 -8.283630 1.348548 -2.047658 -1.267078 3.894217 -12.268759 101.284282 -61.535365 -16.253862 0.000000 0.000000 0.000000 -0.129841 -0.365081 7.217010 -2.298599 -2.469388 7.532454 91.315698 8.174006 41.127550 0.000000 0.000000 0.000000
0.000000 0.000000 0.000000 2.587120 28.143050 6.090914 -6.622226 -0.213730 4.913091 4.140880 27.921928 8.251287 24.607894 49.288988 16.055049 0.000000 0.000000 0.000000 -21.233238 5.042393 -3.321850 -25.246136 10.321746 23.491780 17.422699 -31.501451 -57.027443 0.000000 0.000000 0.000000 24.139803 14.756994 6.806566 40.811753 24.823784 17.618307 17.455717 51.272879 35.478628 0.000000 0.000000 0.000000 -5.947389 0.935297 -0.317917 -1.185401 3.373484 -10.534818 101.067307 -62.098565 -10.274796 0.000000 0.000000 0.000000 -0.985673 -0.315371 8.806616 -5.529071 -3.525885 12.243146 88.020231 10.329175 53.348508 0.000000 0.000000 0.000000
0.000000 0.000000 0.000000 2.936482 29.707541 7.799016 -9.850927 0.099413 5.123964 5.523530 33.408819 9.724874 41.971570 59.315230 30.906592 0.000000 0.000000 0.000000 -33.467935 8.210407 14.635437 -32.080022 15.908608 31.244958 14.859923 -31.058567 -50.282126 0.000000 0.000000 0.000000 38.272224 16.905783 2.221253 79.887639 22.674000 41.726859 37.381111 35.969324 92.363305 0.000000 0.000000 0.000000 -5.884926 0.580107 5.694386 -4.246304 2.111088 -5.146265 98.245200 -60.882815 -15.972659 0.000000 0.000000 0.000000 -4.223765 0.146270 11.391853 -12.562436 -2.945766 15.011751 94.418046 7.488029 52.219716 0.000000 0.000000 0.000000
0.000000 0.000000 0.000000 5.112272 40.368569 9.340000 -7.858423 -0.104704 5.078623 9.212379 47.496207 11.010335 53.182010 63.488897 41.481666 0.000000 0.000000 0.000000 -33.328624 8.550592 22.568326 -13.974703 12.227153 53.886827 9.363495 -24.777925 -40.892808 0.000000 0.000000 0.000000 48.600579 17.436789 -6.537957 102.234641 25.308673 56.327845 33.003671 24.688137 107.092823 0.000000 0.000000 0.000000 -11.914174 1.800493 9.891026 -12.402042 3.603231 -8.091795 99.586202 -62.477959 -2.742699 0.000000 0.000000 0.000000 7.412210 -2.250086 13.932312 -7.304049 -2.671214 10.524822 72.216571 18.880185 59.336459 0.000000 0.000000 0.000000
0.000000 0.000000 0.000000 6.583317 46.089421 10.385676 -3.371136 -0.630205 5.419782 14.921621 58.460190 16.435846 66.798939 67.887725 55.634118 0.000000 0.000000 0.000000 -23.423302 4.081556 25.140411 5.929736 -1.908566 54.083203 5.953962 -14.270630 -45.119193 0.000000 0.000000 0.000000 48.547101 13.951280 -17.526294 101.146400 20.414443 54.539976 31.318400 19.347153 117.393490 0.000000 0.000000 0.000000 -18.026900 3.344822 11.009081 -11.724741 2.971192 -5.237374 104.066672 -63.611176 -3.837592 0.000000 0.000000 0.000000 -5.952180 0.451808 16.843926 -14.697557 1.530412 -2.385690 71.927005 19.554012 61.273805 0.000000 0.000000 0.000000
0.000000 0.000000 0.000000 10.762710 57.672570 13.601353 -3.797138 -0.462117 4.612150 25.815395 69.524329 26.355727 86.716339 67.154573 73.261421 0.000000 0.000000 0.000000 -21.596603 3.342799 23.539148 16.649991 -7.223919 38.892129 7.047614 -12.475464 -58.793376 0.000000 0.000000 0.000000 48.645305 11.167828 -25.690108 95.770645 9.911883 49.135367 26.097858 20.575263 103.867820 0.000000 0.000000 0.000000 -16.776726 3.055250 11.659675 -12.687036 2.836200 -3.993802 91.178675 -62.856326 35.610890 0.000000 0.000000 0.000000 -4.578553 0.205883 11.678213 -16.415607 4.006919 -13.696724 67.569150 20.251549 56.099096 0.000000 0.000000 0.000000
0.000000 0.000000 0.000000 118.186488 81.298298 118.556175 -3.355644 -0.133867 2.192642 135.380189 74.969062 134.607132 102.250684 60.221580 82.739178 0.000000 0.000000 0.000000 -17.638409 2.444624 15.426866 36.884710 -12.250677 21.681845 3.238289 -5.017531 -65.656505 0.000000 0.000000 0.000000 46.480554 7.871557 -30.499275 102.912773 9.475280 53.044028 21.529875 14.244444 113.374323 0.000000 0.000000 0.000000 -3.121174 -0.578777 12.688571 -7.985188 3.426257 -8.922855 73.866007 -43.562512 76.233949 0.000000 0.000000 0.000000 4.966120 -0.325847 -0.622010 -9.603991 7.730472 -25.588459 60.866836 11.547179 21.625901 0.000000 0.000000 0.000000
0.000000 0.000000 0.000000 116.300243 81.187121 117.020825 -3.127046 0.158013 0.201804 120.987110 76.408113 121.820250 104.036624 62.489217 86.665377 0.000000 0.000000 0.000000 -18.111180 3.553675 6.053370 32.515243 -8.547300 14.100144 6.475247 -7.173873 -84.125964 0.000000 0.000000 0.000000 46.752890 7.889673 -30.910942 95.923371 0.973686 47.358032 19.111393 14.853952 104.495003 0.000000 0.000000 0.000000 -0.924449 -1.263620 13.522430 -11.654210 4.297782 -11.856938 73.655298 -43.731480 74.796451 0.000000 0.000000 0.000000 3.827581 0.278075 -6.668092 -10.051167 11.784752 -40.185827 61.262430 6.763693 6.975416 0.000000 0.000000 0.000000
